<svg width="108" height="32" viewBox="0 0 108 32" fill="none" xmlns="http://www.w3.org/2000/svg">
<path d="M98.5467 7.39827H92.0302V24.8418H98.5467C104.915 24.8418 107.491 20.7287 107.491 16.12C107.491 11.5114 105.063 7.39827 98.5467 7.39827ZM98.9184 21.8685H95.3999V10.3716H98.9184C102.437 10.3716 104.122 13.1963 104.122 16.12C104.122 19.0438 102.437 21.8685 98.9184 21.8685Z" fill="#323430"/>
<path d="M78.0927 18.028H90.4815V14.9307L78.0927 14.9307V18.028Z" fill="#323430"/>
<path d="M69.6062 14.1626C66.5338 13.8157 66.2116 12.6759 66.2116 12.0069C66.2116 11.2636 66.8559 9.97511 69.408 9.97511C71.9353 9.97511 72.7034 11.6104 72.7034 12.7502H75.8997C75.8502 9.92556 73.9919 7.2 69.4575 7.2C65.3196 7.2 62.8666 9.43 62.8666 12.1556C62.8666 15.1289 64.4524 16.7394 69.408 17.3837C72.4061 17.7801 73.1742 18.6473 73.1742 19.8367C73.1742 20.803 72.307 22.2649 69.408 22.2649C66.2116 22.2649 65.5922 20.0349 65.5426 18.6969H62.272C62.272 21.918 64.5515 25.04 69.408 25.04C74.0662 25.04 76.544 22.5127 76.544 19.6384C76.544 15.674 73.6945 14.6333 69.6062 14.1626Z" fill="#323430"/>
<path d="M48 7.39827V10.3716H53.2529V24.8418H56.6227V10.3716H61.8756V7.39827H48Z" fill="#323430"/>
<path d="M16 1.90735e-05C7.16344 1.90735e-05 0 7.16346 0 16V1.90735e-05H16Z" fill="#323430"/>
<path d="M16 32C24.8366 32 32 24.8365 32 16L32 32L16 32Z" fill="#323430"/>
<path d="M32 16C32 7.16343 24.8365 -3.13124e-07 16 -6.99382e-07L32 0L32 16Z" fill="#323430"/>
<path d="M2.09815e-06 16C9.39372e-07 24.8366 7.16345 32 16 32L0 32L2.09815e-06 16Z" fill="#323430"/>
</svg>
