<svg width="312" height="32" viewBox="0 0 312 32" fill="none" xmlns="http://www.w3.org/2000/svg">
<path d="M16 0C7.16344 0 0 7.16344 0 16V0H16Z" fill="white"/>
<path d="M16 32C24.8366 32 32 24.8366 32 16L32 32L16 32Z" fill="white"/>
<path d="M32 16C32 7.16343 24.8365 -3.13124e-07 16 -6.99382e-07L32 0L32 16Z" fill="white"/>
<path d="M2.09815e-06 16C9.39371e-07 24.8366 7.16345 32 16 32L0 32L2.09815e-06 16Z" fill="white"/>
<path d="M240.412 7.35654H233.894V24.8035H240.412C246.781 24.8035 249.359 20.6896 249.359 16.08C249.359 11.4705 246.93 7.35654 240.412 7.35654ZM240.784 21.8296H237.265V10.3305H240.784C244.303 10.3305 245.988 13.1557 245.988 16.08C245.988 19.0044 244.303 21.8296 240.784 21.8296Z" fill="white"/>
<path d="M263.239 18.0874C263.239 13.3292 260.092 11.52 257.069 11.52C253.079 11.52 250.551 14.1718 250.551 18.2609C250.551 22.1518 252.88 25.0018 257.118 25.0018C260.613 25.0018 262.446 22.9448 263.016 20.2435H259.795C259.423 21.4083 258.655 22.2261 257.143 22.2261C255.16 22.2261 253.872 21.0365 253.649 19.0539H263.165C263.215 18.6822 263.239 18.4344 263.239 18.0874ZM253.773 16.8731C254.095 15.3118 255.012 14.0974 257.168 14.0974C259.002 14.0974 259.943 15.287 260.067 16.8731H253.773Z" fill="white"/>
<path d="M264.418 20.3922C264.542 23.1926 266.55 25.0018 270.341 25.0018C274.208 25.0018 276.314 23.4405 276.314 20.7144C276.314 18.0874 274.009 17.0465 270.812 16.7244C268.26 16.4765 267.987 15.9561 267.987 15.3365C267.987 14.5931 268.532 13.9983 270.341 13.9983C272.175 13.9983 272.721 14.9152 272.795 15.7331H275.918C275.744 13.3539 273.861 11.52 270.416 11.52C266.698 11.52 264.815 13.3787 264.815 15.51C264.815 16.9722 265.335 19.0539 269.35 19.5496C271.853 19.847 273.142 19.9957 273.142 20.9622C273.142 21.8296 272.473 22.5235 270.441 22.5235C268.136 22.5235 267.566 21.3587 267.541 20.3922H264.418Z" fill="white"/>
<path d="M278.111 10.1322H281.283V6.96002H278.111V10.1322ZM278.111 24.8035H281.283V11.7183H278.111V24.8035Z" fill="white"/>
<path d="M283.078 17.9635C283.078 21.4826 285.383 24.407 288.778 24.407C290.761 24.407 292.074 23.4157 292.917 21.9783C292.966 21.8792 293.09 21.6561 293.313 21.7552C293.561 21.8792 293.388 22.127 293.264 22.3748C293.065 22.7465 292.991 23.0935 292.991 23.5396C292.991 25.9435 291.876 27.1826 289.645 27.1826C287.539 27.1826 286.746 26.2905 286.597 25.1009H283.474C283.698 27.5544 285.581 29.76 289.695 29.76C293.71 29.76 296.163 27.6039 296.163 23.4157V11.7183H292.991V12.3131C292.991 12.7839 293.065 13.1309 293.264 13.5026C293.388 13.7505 293.561 14.0726 293.313 14.1718C293.09 14.2709 292.941 13.9487 292.917 13.8992C292.074 12.5361 290.81 11.52 288.778 11.52C285.383 11.52 283.078 14.4444 283.078 17.9635ZM289.521 21.5322C287.291 21.5322 286.25 19.8965 286.25 17.9635C286.25 16.0305 287.291 14.3948 289.521 14.3948C291.603 14.3948 292.991 16.0305 292.991 17.9635C292.991 19.8965 291.603 21.5322 289.521 21.5322Z" fill="white"/>
<path d="M306.339 11.52C304.059 11.52 302.572 13.3539 301.977 14.6674C301.878 14.8657 301.803 15.0144 301.605 14.9648C301.283 14.8905 301.432 14.5435 301.531 14.3205C301.779 13.8 301.927 13.3292 301.927 12.5361V11.7183H298.755V24.8035H301.927V19.4752C301.927 16.4518 303.612 14.3948 305.446 14.3948C307.107 14.3948 307.875 15.2126 307.875 18.1618V24.8035H311.047V17.0713C311.047 13.3539 309.164 11.52 306.339 11.52Z" fill="white"/>
<path d="M206.014 17.9883L230.797 17.9883V14.8905L206.014 14.8905V17.9883Z" fill="white"/>
<path d="M103.042 14.1222C99.9691 13.7752 99.6469 12.6352 99.6469 11.9661C99.6469 11.2226 100.291 9.93393 102.844 9.93393C105.372 9.93393 106.14 11.5696 106.14 12.7096H109.337C109.287 9.88437 107.429 7.15828 102.893 7.15828C98.7548 7.15828 96.3013 9.38872 96.3013 12.1148C96.3013 15.0887 97.8874 16.6996 102.844 17.3439C105.843 17.7405 106.611 18.6078 106.611 19.7974C106.611 20.7639 105.743 22.2261 102.844 22.2261C99.6469 22.2261 99.0274 19.9957 98.9778 18.6574H95.7065C95.7065 21.8792 97.9865 25.0018 102.844 25.0018C107.503 25.0018 109.981 22.4739 109.981 19.5992C109.981 15.6339 107.131 14.5931 103.042 14.1222Z" fill="white"/>
<path d="M119.895 14.4939V11.7183H116.326V8.14959H113.154V11.7183H110.775V14.4939H113.154V20.7887C113.154 23.9361 114.393 24.8035 117.02 24.8035H119.895V22.0278H117.689C116.351 22.0278 116.326 21.9039 116.326 20.4665V14.4939H119.895Z" fill="white"/>
<path d="M122.081 10.1322H125.253V6.96002H122.081V10.1322ZM122.081 24.8035H125.253V11.7183H122.081V24.8035Z" fill="white"/>
<path d="M142.165 11.52C140.604 11.52 139.29 12.4618 138.547 14.1222C138.473 14.2957 138.349 14.3452 138.2 14.3452C138.002 14.3452 137.878 14.2709 137.828 14.0974C137.481 12.5857 136.391 11.52 134.681 11.52C132.946 11.52 131.732 12.5857 131.063 14.2957C131.013 14.4196 130.914 14.6426 130.666 14.5683C130.418 14.4939 130.493 14.2461 130.592 14.0231C130.84 13.4778 131.013 13.1061 131.013 12.4618V11.7183H127.841V24.8035H131.013V18.7565C131.013 16.2287 132.153 14.3948 133.69 14.3948C135.3 14.3948 135.573 15.4852 135.573 17.4678V24.8035H138.745V18.2113C138.745 15.8818 139.811 14.3948 141.199 14.3948C142.735 14.3948 143.305 15.1878 143.305 17.1705V24.8035H146.477V16.6748C146.477 12.7592 144.445 11.52 142.165 11.52Z" fill="white"/>
<path d="M151.827 11.7183H148.654V29.5618H151.827V24.2335C151.827 23.7378 151.703 23.3413 151.48 22.8952C151.356 22.6474 151.257 22.3996 151.529 22.3005C151.752 22.2261 151.851 22.4739 151.901 22.5483C152.694 23.9857 154.057 25.0018 156.04 25.0018C159.435 25.0018 161.74 22.0278 161.74 18.2609C161.74 14.4939 159.435 11.52 156.04 11.52C154.007 11.52 152.694 12.5609 151.901 13.9487C151.851 14.0478 151.703 14.37 151.455 14.2461C151.207 14.1222 151.38 13.8248 151.48 13.577C151.703 13.1309 151.827 12.7344 151.827 12.2139V11.7183ZM155.296 22.127C153.214 22.127 151.827 20.3426 151.827 18.2609C151.827 16.1792 153.214 14.3948 155.296 14.3948C157.527 14.3948 158.567 16.1792 158.567 18.2609C158.567 20.3426 157.527 22.127 155.296 22.127Z" fill="white"/>
<path d="M162.939 20.3922C163.063 23.1926 165.07 25.0018 168.862 25.0018C172.728 25.0018 174.835 23.4405 174.835 20.7144C174.835 18.0874 172.53 17.0465 169.333 16.7244C166.78 16.4765 166.508 15.9561 166.508 15.3365C166.508 14.5931 167.053 13.9983 168.862 13.9983C170.696 13.9983 171.241 14.9152 171.316 15.7331H174.438C174.265 13.3539 172.381 11.52 168.936 11.52C165.219 11.52 163.336 13.3787 163.336 15.51C163.336 16.9722 163.856 19.0539 167.871 19.5496C170.374 19.847 171.662 19.9957 171.662 20.9622C171.662 21.8296 170.993 22.5235 168.961 22.5235C166.656 22.5235 166.086 21.3587 166.062 20.3922H162.939Z" fill="white"/>
<path d="M182.575 11.52C178.486 11.52 176.032 14.5435 176.032 18.2609C176.032 21.9783 178.486 25.0018 182.575 25.0018C186.664 25.0018 189.117 21.9783 189.117 18.2609C189.117 14.5435 186.664 11.52 182.575 11.52ZM182.575 22.127C180.419 22.127 179.204 20.3922 179.204 18.2609C179.204 16.1296 180.419 14.3948 182.575 14.3948C184.731 14.3948 185.945 16.1296 185.945 18.2609C185.945 20.3922 184.731 22.127 182.575 22.127Z" fill="white"/>
<path d="M198.3 11.52C196.02 11.52 194.534 13.3539 193.939 14.6674C193.84 14.8657 193.765 15.0144 193.567 14.9648C193.245 14.8905 193.394 14.5435 193.493 14.3205C193.74 13.8 193.889 13.3292 193.889 12.5361V11.7183H190.717V24.8035H193.889V19.4752C193.889 16.4518 195.574 14.3948 197.408 14.3948C199.069 14.3948 199.837 15.2126 199.837 18.1618V24.8035H203.009V17.0713C203.009 13.3539 201.126 11.52 198.3 11.52Z" fill="white"/>
<path d="M48 7.35654V10.3305H53.2539V24.8035H56.6243V10.3305H61.8783V7.35654H48Z" fill="white"/>
<path d="M67.2485 11.52C63.1594 11.52 60.7059 14.5435 60.7059 18.2609C60.7059 21.9783 63.1594 25.0018 67.2485 25.0018C71.3377 25.0018 73.7911 21.9783 73.7911 18.2609C73.7911 14.5435 71.3377 11.52 67.2485 11.52ZM67.2485 22.127C65.0924 22.127 63.8781 20.3922 63.8781 18.2609C63.8781 16.1296 65.0924 14.3948 67.2485 14.3948C69.4046 14.3948 70.619 16.1296 70.619 18.2609C70.619 20.3922 69.4046 22.127 67.2485 22.127Z" fill="white"/>
<path d="M89.7151 11.52C88.1538 11.52 86.8403 12.4618 86.0969 14.1222C86.0225 14.2957 85.8986 14.3452 85.7499 14.3452C85.5516 14.3452 85.4277 14.2709 85.3782 14.0974C85.0312 12.5857 83.9408 11.52 82.2308 11.52C80.496 11.52 79.2816 12.5857 78.6125 14.2957C78.563 14.4196 78.4638 14.6426 78.216 14.5683C77.9682 14.4939 78.0425 14.2461 78.1416 14.0231C78.3895 13.4778 78.563 13.1061 78.563 12.4618V11.7183H75.3908V24.8035H78.563V18.7565C78.563 16.2287 79.703 14.3948 81.2395 14.3948C82.8503 14.3948 83.123 15.4852 83.123 17.4678V24.8035H86.2951V18.2113C86.2951 15.8818 87.3608 14.3948 88.7486 14.3948C90.2851 14.3948 90.8551 15.1878 90.8551 17.1705V24.8035H94.0273V16.6748C94.0273 12.7592 91.9951 11.52 89.7151 11.52Z" fill="white"/>
</svg>
